# xmcd CD database file
#
# Track frame offsets:
#	182
#	18470
#	39912
#	49405
#	76437
#	86770
#	102225
#	125812
#	140707
#	164680
#	183452
#	197500
#
# Disc length: 2950 seconds
#
# Revision: 6
# Processed by: cddbd v1.5.2PL0 Copyright (c) Steve Scherf et al.
# Submitted via: CDex 1.70beta2
#
DISCID=aa0b840c
DTITLE=Johnnie Johnson and the Kentucky Headhunters - That'll Work
DYEAR=1993
DGENRE=Blues
TTITLE0=That'll Work
TTITLE1=Sunday Blues
TTITLE2=Johnnie's Breakdown
TTITLE3=I'm Not Runnin'
TTITLE4=Bummed about Love
TTITLE5=Stumblin'
TTITLE6=Back to Memphis
TTITLE7=The Feel
TTITLE8=I Know You Can
TTITLE9=She's Got to Have It
TTITLE10=Derby Day Special
TTITLE11=Tell Me, Baby
EXTD=YEAR: 1993
EXTT0=
EXTT1=
EXTT2=
EXTT3=
EXTT4=
EXTT5=
EXTT6=
EXTT7=
EXTT8=
EXTT9=
EXTT10=
EXTT11=
PLAYORDER=
